<svg xmlns="http://www.w3.org/2000/svg" width="400" height="560" viewBox="0 0 400 560">
  <defs>
    <linearGradient id="bg" x1="0" y1="0" x2="0.35" y2="1">
      <stop offset="0" stop-color="#35544b"/>
      <stop offset="1" stop-color="#1e342f"/>
    </linearGradient>
    <linearGradient id="moon" x1="0" y1="0" x2="1" y2="1">
      <stop offset="0" stop-color="#f0c894"/>
      <stop offset="1" stop-color="#d99a5b"/>
    </linearGradient>
  </defs>
  <rect width="400" height="560" fill="url(#bg)"/>

  <circle cx="306" cy="118" r="44" fill="url(#moon)"/>
  <circle cx="306" cy="118" r="58" fill="none" stroke="#f0c894" stroke-width="1" opacity="0.35"/>

  <g fill="none" stroke="#e9e2cf" stroke-linecap="round">
    <path d="M-20 396 C 70 366, 140 430, 230 400 S 380 360, 430 392" stroke-width="2" opacity="0.55"/>
    <path d="M-20 430 C 80 400, 150 462, 240 432 S 380 396, 430 426" stroke-width="1.6" opacity="0.42"/>
    <path d="M-20 464 C 90 436, 160 494, 250 466 S 380 432, 430 460" stroke-width="1.3" opacity="0.32"/>
    <path d="M-20 498 C 100 472, 170 524, 260 498 S 380 468, 430 494" stroke-width="1" opacity="0.22"/>
    <path d="M-20 530 C 110 506, 180 552, 270 528 S 380 502, 430 526" stroke-width="0.8" opacity="0.14"/>
  </g>

  <g font-family="'Noto Serif SC','Songti SC','SimSun',serif" fill="#f2ead8">
    <text x="64" y="190" font-size="92" font-weight="700">心</text>
    <text x="64" y="296" font-size="92" font-weight="700">流</text>
    <g font-size="17" letter-spacing="2" opacity="0.78">
      <text x="196" y="142">最</text>
      <text x="196" y="168">优</text>
      <text x="196" y="194">体</text>
      <text x="196" y="220">验</text>
      <text x="196" y="246">心</text>
      <text x="196" y="272">理</text>
      <text x="196" y="298">学</text>
    </g>
    <text x="64" y="520" font-size="15" letter-spacing="1.5" opacity="0.7">米哈里 · 契克森米哈赖</text>
  </g>
  <line x1="180" y1="124" x2="180" y2="304" stroke="#f2ead8" stroke-width="1" opacity="0.3"/>
</svg>
